<svg width="30" height="31" viewBox="0 0 30 31" fill="none" xmlns="http://www.w3.org/2000/svg">
<path fill-rule="evenodd" clip-rule="evenodd" d="M14.6464 0.0858057C17.7568 0.0120384 20.8124 0.912846 23.3857 2.66213C25.9589 4.41141 27.9209 6.92162 28.9972 9.84144C30.0735 12.7612 30.2103 15.9446 29.3883 18.946C29.0246 20.2742 27.6531 21.0561 26.3251 20.6923C24.997 20.3285 24.2153 18.9568 24.5791 17.6285C25.1263 15.6302 25.0353 13.5107 24.3187 11.5666C23.602 9.62261 22.2957 7.95138 20.5826 6.78679C18.8695 5.6222 16.8353 5.02252 14.7646 5.07163C12.6939 5.12074 10.6904 5.81618 9.03434 7.06068C7.37831 8.30517 6.15267 10.0365 5.52897 12.0123C4.90528 13.9881 4.91476 16.1095 5.55609 18.0797C6.19742 20.0498 7.43849 21.7701 9.10558 22.9997C10.7727 24.2294 12.7823 24.9069 14.8534 24.9375C16.2302 24.9578 17.3298 26.0906 17.3095 27.4676C17.2892 28.8447 16.1565 29.9445 14.7797 29.9241C11.6688 29.8782 8.65004 28.8605 6.14598 27.0135C3.64193 25.1665 1.77788 22.5827 0.81464 19.6236C-0.148601 16.6646 -0.162841 13.4783 0.77391 10.5108C1.71066 7.54322 3.55155 4.94282 6.03899 3.07352C8.52643 1.20422 11.5359 0.159573 14.6464 0.0858057Z" fill="#121920"/>
<path d="M26.2208 24.7125C26.2208 26.8006 24.5284 28.4932 22.4407 28.4932C20.353 28.4932 18.6606 26.8006 18.6606 24.7125C18.6606 22.6245 20.353 20.9318 22.4407 20.9318C24.5284 20.9318 26.2208 22.6245 26.2208 24.7125Z" fill="#F95A59"/>
</svg>
